<?xml version="1.0" standalone="no"?>
<!DOCTYPE svg PUBLIC "-//W3C//DTD SVG 20010904//EN"
 "http://www.w3.org/TR/2001/REC-SVG-20010904/DTD/svg10.dtd">
<svg version="1.0" xmlns="http://www.w3.org/2000/svg"
 width="676.000000pt" height="676.000000pt" viewBox="0 0 676.000000 676.000000"
 preserveAspectRatio="xMidYMid meet">
<metadata>
Created by potrace 1.11, written by Peter Selinger 2001-2013
</metadata>
<g transform="translate(0.000000,676.000000) scale(0.100000,-0.100000)"
fill="#000000" stroke="none">
<path d="M4225 6694 c-64 -49 -74 -64 -94 -132 -23 -75 -25 -77 -96 -87 -22
-3 -65 -18 -95 -33 -44 -22 -60 -37 -81 -76 -15 -27 -40 -61 -56 -76 -31 -30
-32 -33 -15 -147 10 -72 7 -78 -57 -141 -26 -26 -57 -60 -67 -77 -26 -38 -75
-204 -81 -270 -2 -27 -6 -59 -8 -70 -2 -11 -4 -26 -4 -32 -1 -7 -7 -13 -13
-13 -7 0 -29 -23 -50 -50 -32 -44 -35 -54 -28 -83 5 -17 11 -48 14 -67 2 -19
10 -52 16 -73 6 -22 9 -41 7 -44 -12 -11 24 -105 67 -173 25 -41 46 -82 46
-91 0 -10 4 -20 9 -24 15 -9 -1 -269 -24 -400 -17 -94 -28 -145 -40 -185 -7
-25 -17 -65 -21 -90 -4 -25 -8 -47 -9 -50 -1 -3 -5 -21 -10 -40 -15 -65 -20
-125 -25 -310 -2 -80 -12 -120 -28 -120 -12 0 -32 51 -48 119 -8 36 -20 73
-25 84 -17 30 -19 57 -6 78 10 16 8 21 -11 35 -32 22 -26 59 19 111 41 48 62
120 75 263 3 30 7 64 8 75 2 11 -3 35 -10 53 -7 18 -14 63 -15 100 -2 96 -24
203 -58 280 -16 37 -37 90 -46 117 -21 64 -56 137 -73 150 -7 6 -12 15 -10 20
1 6 -8 28 -22 50 -13 22 -26 49 -28 60 -4 31 -61 148 -83 172 -17 18 -26 20
-52 12 -49 -14 -77 -12 -71 6 16 41 -96 153 -178 178 -80 25 -101 26 -128 6
-14 -9 -52 -32 -83 -49 l-58 -31 -59 61 c-33 33 -60 65 -60 70 0 6 -7 10 -15
10 -25 0 -199 87 -219 109 -22 24 -57 27 -89 7 -12 -8 -35 -16 -52 -17 -16 -2
-36 -7 -42 -12 -7 -5 -30 -11 -50 -14 -30 -3 -49 -15 -89 -58 -29 -29 -60 -74
-69 -99 -17 -45 -30 -53 -125 -82 -29 -8 -90 -39 -90 -44 0 -5 -12 -11 -27
-15 -30 -7 -71 -48 -94 -92 -8 -16 -17 -30 -20 -33 -13 -10 -38 -68 -32 -73 9
-10 -18 -37 -36 -37 -40 0 -64 -43 -64 -114 0 -33 43 -72 108 -96 50 -19 82
-17 134 9 57 30 86 27 125 -13 37 -36 120 -68 171 -65 51 3 60 0 96 -31 19
-16 40 -34 47 -40 6 -6 12 -28 12 -50 0 -28 7 -45 23 -60 33 -33 87 -57 137
-63 65 -8 168 -44 224 -78 39 -25 60 -30 112 -31 36 -1 67 -5 70 -10 3 -4 -12
-8 -33 -8 -56 0 -67 -16 -41 -54 26 -37 57 -66 71 -66 21 0 77 -33 82 -49 7
-23 52 -72 90 -98 54 -37 101 -46 255 -52 8 -1 25 -22 38 -49 12 -26 40 -70
62 -97 22 -28 46 -65 55 -84 15 -32 59 -189 69 -241 2 -14 7 -32 10 -40 14
-39 29 -163 30 -245 0 -41 -6 -69 -18 -88 -22 -33 -31 -28 -78 46 -18 29 -35
54 -38 57 -3 3 -31 43 -62 90 -63 93 -112 147 -235 258 -88 80 -153 131 -167
132 -4 0 -28 14 -53 30 -24 17 -46 30 -49 30 -4 0 -20 6 -37 14 -18 8 -44 17
-59 20 -15 4 -33 16 -39 29 -6 12 -20 32 -31 43 -13 15 -21 40 -23 78 -5 85
-14 90 -159 91 -203 0 -253 -18 -275 -103 l-11 -40 -100 50 c-55 28 -100 54
-100 59 0 5 -5 9 -12 9 -13 0 -78 68 -78 81 0 5 -10 15 -23 24 -21 13 -28 13
-68 -2 -24 -10 -46 -20 -49 -23 -6 -7 -112 -53 -162 -71 -85 -29 -56 -76 87
-140 l30 -13 -35 -4 c-19 -1 -48 -9 -65 -16 -128 -57 -181 -70 -290 -73 -60
-2 -118 -3 -127 -4 -9 0 -22 -7 -29 -15 -6 -8 -17 -14 -24 -14 -8 0 -15 -4
-17 -8 -6 -14 -66 -52 -82 -52 -35 0 -98 -42 -131 -88 -21 -29 -42 -77 -56
-127 -11 -44 -32 -99 -46 -123 -14 -23 -31 -61 -38 -84 -11 -40 -11 -50 11
-143 15 -63 14 -75 -18 -136 -18 -35 -34 -73 -36 -84 -7 -42 11 -88 63 -167
30 -44 55 -86 55 -92 0 -6 -7 -20 -15 -30 -21 -28 -18 -85 6 -126 28 -45 99
-112 171 -162 32 -21 65 -52 73 -68 13 -25 20 -28 48 -25 17 2 70 6 117 10
123 9 133 10 158 26 26 17 40 54 47 132 6 67 20 107 36 107 17 0 104 95 123
133 8 19 18 52 21 75 5 40 2 44 -45 89 -28 26 -50 51 -50 56 0 13 53 2 118
-24 52 -21 54 -21 95 -4 56 25 67 36 73 74 6 38 49 137 63 146 6 3 11 14 11
23 0 9 7 31 16 47 31 60 21 129 -27 176 -16 15 -29 31 -29 33 0 13 35 76 42
76 4 0 8 5 8 12 0 6 6 19 13 27 11 13 41 92 42 111 3 35 55 68 55 35 0 -22 18
-18 52 10 16 14 42 28 56 31 40 10 98 41 125 66 75 73 72 71 109 54 18 -8 65
-19 103 -25 123 -17 189 -40 295 -99 68 -37 289 -249 326 -311 10 -17 22 -31
26 -31 4 0 8 -5 8 -11 0 -5 13 -27 29 -47 29 -37 46 -80 54 -137 3 -16 16 -58
30 -91 l25 -62 -77 -1 c-144 -2 -213 -15 -431 -83 -95 -29 -235 -101 -311
-157 -98 -74 -200 -188 -254 -282 -61 -106 -90 -166 -100 -204 -5 -16 -9 -34
-11 -40 -2 -5 -5 -19 -8 -30 -3 -11 -9 -35 -15 -53 -5 -18 -10 -35 -10 -37 -1
-3 -1 -6 -2 -7 -14 -48 -19 -297 -7 -374 5 -32 11 -79 12 -104 5 -100 93 -334
147 -395 10 -11 48 -58 85 -105 78 -99 311 -330 332 -330 4 0 28 -20 52 -44
45 -43 203 -156 220 -156 4 0 10 -4 12 -8 4 -11 186 -132 198 -132 5 0 10 -3
12 -7 2 -5 41 -34 88 -65 93 -62 318 -279 375 -363 44 -64 60 -112 70 -220 3
-33 10 -64 15 -68 12 -13 76 21 95 49 13 20 49 123 60 169 1 6 7 23 13 38 7
16 12 30 12 33 0 3 4 10 10 17 5 7 33 44 62 82 29 39 63 81 76 95 68 73 99
102 117 112 47 25 275 182 275 189 0 5 6 9 14 9 8 0 16 4 18 8 3 9 91 61 163
97 22 11 42 22 45 25 3 3 21 14 40 24 19 10 54 32 78 48 24 15 46 28 50 28 4
0 19 10 33 23 13 12 38 30 54 39 72 40 176 126 200 165 15 22 38 52 52 65 14
12 41 46 61 73 20 28 39 52 42 55 26 25 139 269 154 335 2 6 8 30 15 55 21 71
18 414 -4 520 -9 46 -22 96 -27 110 -5 14 -11 32 -13 41 -12 61 -136 319 -157
327 -4 2 -8 9 -8 15 0 28 -199 214 -271 255 -53 29 -103 56 -109 57 -3 1 -42
13 -86 28 -125 40 -282 75 -369 83 -112 9 -195 7 -212 -7 -11 -10 -18 -9 -31
5 -13 12 -17 36 -19 94 0 42 -4 118 -7 167 -3 50 -2 96 3 103 15 24 79 30 276
28 l194 -3 12 29 c23 56 9 106 -31 113 -3 1 -30 7 -60 13 -53 12 -158 22 -265
26 l-50 2 1 57 c1 32 10 74 19 95 15 31 58 95 75 112 3 3 18 25 34 49 52 80
179 183 242 196 16 3 74 8 129 12 l101 6 27 -36 c55 -72 135 -101 227 -82 53
11 121 17 135 11 12 -4 13 -10 4 -30 -9 -20 -9 -30 3 -48 8 -13 16 -26 16 -31
1 -4 18 -39 38 -78 40 -80 85 -127 159 -165 71 -37 75 -42 68 -75 -3 -19 -1
-29 6 -29 9 0 9 -5 1 -20 -6 -11 -7 -32 -3 -47 4 -16 8 -30 8 -33 7 -40 117
-170 145 -170 10 0 35 31 47 61 9 20 9 29 0 38 -7 7 -8 14 -1 21 18 18 41 1
53 -41 6 -21 16 -39 21 -39 6 0 10 -5 10 -10 0 -16 54 -86 86 -112 16 -13 46
-31 66 -42 20 -10 47 -33 60 -50 34 -46 130 -136 145 -136 7 0 13 -4 13 -10 0
-21 103 -6 195 30 24 9 65 117 71 188 7 79 12 90 64 124 97 63 105 149 19 197
-57 32 -76 51 -93 93 -12 28 -12 38 0 67 16 38 23 69 30 126 6 45 -18 98 -86
190 -23 31 -47 74 -55 96 -21 58 -21 148 -1 186 25 50 21 88 -13 112 -16 12
-32 21 -35 21 -6 0 -20 12 -129 108 -49 43 -66 52 -97 52 -37 0 -49 8 -120 74
-20 18 -88 56 -101 56 -10 0 -70 42 -97 68 -18 17 -39 15 -117 -9 -105 -32
-135 -37 -287 -43 -91 -4 -136 -15 -203 -49 -69 -34 -157 -109 -188 -159 -21
-34 -39 -51 -61 -57 -37 -10 -107 -5 -154 10 -52 17 -94 13 -148 -14 -27 -13
-76 -27 -108 -31 -65 -7 -106 -27 -113 -57 -5 -17 -15 -23 -35 -20 -4 0 -15
-25 -23 -57 -9 -31 -18 -61 -20 -67 -1 -5 15 -29 37 -51 l40 -41 -58 -64 c-70
-79 -123 -150 -155 -209 -13 -25 -28 -50 -34 -57 -5 -7 -15 -18 -21 -25 -29
-35 -44 -67 -50 -103 -7 -48 -24 -70 -25 -34 0 13 -3 35 -7 49 -8 32 -7 194 2
244 3 22 9 53 11 70 53 312 102 412 201 408 27 -1 36 5 60 41 16 23 32 44 37
45 4 2 7 9 7 16 0 14 36 53 113 123 25 23 74 79 109 125 35 46 65 85 68 88 3
3 11 17 18 33 13 30 15 27 -80 80 l-33 19 30 16 c41 22 51 24 129 23 78 -1
113 12 169 64 47 44 72 97 57 125 -8 14 -8 26 0 40 13 25 5 40 -20 40 -10 0
-22 5 -25 10 -3 6 2 10 12 10 10 0 32 8 48 18 17 10 55 28 85 40 111 42 145
61 164 92 17 29 17 35 3 73 -27 74 -29 72 112 72 107 0 131 3 156 20 40 25 85
67 85 78 0 18 40 45 88 57 104 27 206 66 240 93 10 8 8 15 -9 34 -13 12 -28
23 -36 23 -7 0 -13 4 -13 8 0 16 -98 42 -175 46 -59 2 -95 10 -137 30 -59 26
-74 30 -168 41 -30 3 -73 13 -95 22 -46 19 -111 83 -140 138 -11 21 -35 46
-52 55 -18 10 -39 22 -46 29 -8 6 -58 20 -111 30 -54 11 -105 26 -114 33 -9 7
-26 22 -38 34 -24 21 -107 67 -128 70 -6 1 -25 -9 -41 -22z"/>
</g>
</svg>
